<?xml version="1.0" encoding="UTF-8" standalone="no"?>
<!-- Created with Inkscape (http://www.inkscape.org/) -->

<svg
   version="1.1"
   id="svg2"
   xml:space="preserve"
   width="1066.6667"
   height="1066.6667"
   viewBox="0 0 1066.6667 1066.6667"
   sodipodi:docname="cat laptop-01.ai"
   xmlns:inkscape="http://www.inkscape.org/namespaces/inkscape"
   xmlns:sodipodi="http://sodipodi.sourceforge.net/DTD/sodipodi-0.dtd"
   xmlns="http://www.w3.org/2000/svg"
   xmlns:svg="http://www.w3.org/2000/svg"><defs
     id="defs6"><clipPath
       clipPathUnits="userSpaceOnUse"
       id="clipPath18"><path
         d="M 0,800 H 800 V 0 H 0 Z"
         id="path16" /></clipPath><clipPath
       clipPathUnits="userSpaceOnUse"
       id="clipPath68"><path
         d="M 217.649,550.665 H 613.412 V 257.571 H 217.649 Z"
         id="path66" /></clipPath><clipPath
       clipPathUnits="userSpaceOnUse"
       id="clipPath84"><path
         d="m 487.154,283.784 h 27.428 v -27.428 h -27.428 z"
         id="path82" /></clipPath><clipPath
       clipPathUnits="userSpaceOnUse"
       id="clipPath100"><path
         d="m 361.577,518.418 h 23.716 v -23.715 h -23.716 z"
         id="path98" /></clipPath><clipPath
       clipPathUnits="userSpaceOnUse"
       id="clipPath116"><path
         d="m 501.567,333.58 h 28.909 v -28.91 h -28.909 z"
         id="path114" /></clipPath><clipPath
       clipPathUnits="userSpaceOnUse"
       id="clipPath132"><path
         d="m 455.491,327.739 h 20.817 v -20.818 h -20.817 z"
         id="path130" /></clipPath><clipPath
       clipPathUnits="userSpaceOnUse"
       id="clipPath148"><path
         d="m 516.022,369.919 h 17.939 V 351.98 h -17.939 z"
         id="path146" /></clipPath><clipPath
       clipPathUnits="userSpaceOnUse"
       id="clipPath164"><path
         d="m 250.223,501.635 h 17.939 v -17.94 h -17.939 z"
         id="path162" /></clipPath><clipPath
       clipPathUnits="userSpaceOnUse"
       id="clipPath180"><path
         d="m 399.792,480.293 h 17.939 v -17.939 h -17.939 z"
         id="path178" /></clipPath><clipPath
       clipPathUnits="userSpaceOnUse"
       id="clipPath196"><path
         d="m 545.985,299.519 h 20.817 v -20.818 h -20.817 z"
         id="path194" /></clipPath><clipPath
       clipPathUnits="userSpaceOnUse"
       id="clipPath212"><path
         d="m 465.899,371.795 h 21.692 v -21.691 h -21.692 z"
         id="path210" /></clipPath><clipPath
       clipPathUnits="userSpaceOnUse"
       id="clipPath228"><path
         d="m 421.689,376.033 h 14.687 v -14.686 h -14.687 z"
         id="path226" /></clipPath><clipPath
       clipPathUnits="userSpaceOnUse"
       id="clipPath244"><path
         d="m 218.21,353.78 h 19.55 v -14 h -19.55 z"
         id="path242" /></clipPath><clipPath
       clipPathUnits="userSpaceOnUse"
       id="clipPath260"><path
         d="M 233.018,483.695 H 613.409 V 217.38 H 233.018 Z"
         id="path258" /></clipPath><clipPath
       clipPathUnits="userSpaceOnUse"
       id="clipPath276"><path
         d="m 233.57,368.69 h 24.92 v -28.91 h -24.92 z"
         id="path274" /></clipPath><clipPath
       clipPathUnits="userSpaceOnUse"
       id="clipPath296"><path
         d="M 329.92,262.698 H 361.9 V 216.19 h -31.98 z"
         id="path294" /></clipPath><clipPath
       clipPathUnits="userSpaceOnUse"
       id="clipPath312"><path
         d="M 233.017,469.695 H 455.97 V 242.877 H 233.017 Z"
         id="path310" /></clipPath><clipPath
       clipPathUnits="userSpaceOnUse"
       id="clipPath328"><path
         d="m 151.62,339.78 h 178.3 V 231.26 h -178.3 z"
         id="path326" /></clipPath><clipPath
       clipPathUnits="userSpaceOnUse"
       id="clipPath344"><path
         d="m 151.62,231.26 h 178.3 v -15.07 h -178.3 z"
         id="path342" /></clipPath><clipPath
       clipPathUnits="userSpaceOnUse"
       id="clipPath474"><path
         d="m 328.445,375.224 -41.63,0.09 c 0,0 19.113,-47.28 41.63,-0.09"
         id="path472" /></clipPath><clipPath
       clipPathUnits="userSpaceOnUse"
       id="clipPath486"><path
         d="m 299.513,367.677 h 22.329 v -27.37 h -22.329 z"
         id="path484" /></clipPath><clipPath
       clipPathUnits="userSpaceOnUse"
       id="clipPath502"><path
         d="M 0,800 H 800 V 0 H 0 Z"
         id="path500" /></clipPath><clipPath
       clipPathUnits="userSpaceOnUse"
       id="clipPath522"><path
         d="m 295.847,396.336 h 9.472 v -6.543 h -9.472 z"
         id="path520" /></clipPath></defs><sodipodi:namedview
     id="namedview4"
     pagecolor="#ffffff"
     bordercolor="#666666"
     borderopacity="1.0"
     inkscape:pageshadow="2"
     inkscape:pageopacity="0.0"
     inkscape:pagecheckerboard="0" /><g
     id="g8"
     inkscape:groupmode="layer"
     inkscape:label="cat laptop-01"
     transform="matrix(1.3333333,0,0,-1.3333333,0,1066.6667)"><path
       d="M 0,0 H 800 V 800 H 0 Z"
       style="fill:#ffffff;fill-opacity:1;fill-rule:nonzero;stroke:none"
       id="path10" /><g
       id="g12"><g
         id="g14"
         clip-path="url(#clipPath18)"><g
           id="g20"
           transform="translate(321.1299,374.6104)"><path
             d="M 0,0 C -1.86,-1.471 -4.69,-3.38 -6.99,-3.971 -19.55,-7.24 -21.05,1.47 -21.05,1.47 c 0.13,-3.21 -2.34,-5.941 -5.55,-6.111 -8.45,-0.469 -12.25,2.58 -13.95,5.62 0.21,-0.74 6.1,-20.41 21.55,-30.04 1.13,-0.71 2.59,-0.58 3.58,0.311 4.67,4.22 18.81,18.649 18.39,31.909 C 2.18,1.92 1.08,0.859 0,0 m 87.96,21.54 c -0.04,1.56 -0.09,3.1 -0.17,4.6 -0.04,0.65 -0.07,1.299 -0.12,1.93 -0.02,0.46 -0.05,0.909 -0.09,1.36 -0.03,0.54 -0.07,1.07 -0.12,1.6 -0.109,1.369 -0.24,2.699 -0.39,4.01 -0.06,0.48 -0.11,0.95 -0.17,1.419 -0.339,2.77 -0.76,5.421 -1.25,7.94 -0.129,0.651 -0.26,1.301 -0.4,1.931 -0.14,0.66 -0.28,1.31 -0.43,1.95 -0.299,1.28 -0.62,2.54 -0.96,3.75 -0.16,0.6 -0.33,1.179 -0.5,1.76 -0.02,0.05 -0.03,0.09 -0.04,0.13 -0.17,0.539 -0.33,1.07 -0.5,1.6 -0.009,0.03 -0.02,0.05 -0.03,0.08 -0.01,0.03 -0.019,0.049 -0.03,0.08 -0.11,0.36 -0.23,0.71 -0.35,1.06 -0.25,0.75 -0.51,1.489 -0.79,2.21 -0.61,1.64 -1.26,3.21 -1.95,4.71 -0.21,0.46 -0.42,0.91 -0.64,1.36 -0.36,0.74 -0.72,1.459 -1.1,2.169 -0.14,0.261 -0.27,0.511 -0.42,0.77 -1.34,2.44 -2.79,4.681 -4.33,6.75 -0.25,0.331 -0.5,0.661 -0.76,0.98 -1.52,1.931 -3.12,3.701 -4.79,5.301 -0.22,0.21 -0.44,0.42 -0.66,0.62 -0.94,0.88 -1.91,1.7 -2.9,2.48 -0.35,0.28 -0.7,0.55 -1.05,0.809 -0.55,0.411 -1.1,0.81 -1.66,1.191 -0.44,0.3 -0.88,0.59 -1.32,0.869 -0.43,0.281 -0.87,0.551 -1.31,0.811 -0.45,0.27 -0.9,0.53 -1.36,0.79 -0.23,0.12 -0.45,0.24 -0.67,0.36 -0.86,0.46 -1.74,0.9 -2.63,1.309 -0.51,0.241 -1.02,0.471 -1.54,0.691 -0.51,0.22 -1.03,0.44 -1.55,0.64 -0.52,0.21 -1.04,0.399 -1.57,0.589 -0.87,0.31 -1.75,0.601 -2.63,0.871 -0.3,0.1 -0.6,0.189 -0.9,0.28 -0.97,0.28 -1.95,0.53 -2.94,0.77 -0.53,0.13 -1.06,0.25 -1.59,0.36 C 17.29,99.58 7.85,72.28 -18.46,85.53 -44.77,98.79 -62.49,83.82 -62.49,83.82 -87.29,60.07 -89.54,20.88 -87.56,-5.91 v -0.01 c 0.91,-1.631 1.87,-3.23 2.89,-4.801 v -0.019 c 0.05,-0.08 0.11,-0.17 0.16,-0.25 2.28,-3.531 4.79,-6.91 7.53,-10.12 4.27,-5 9.07,-9.6 14.34,-13.72 H 8.79 v -22.45 c 1.69,0.07 3.36,0.17 5.02,0.32 0.65,0.05 1.3,0.109 1.94,0.189 0.67,0.061 1.34,0.13 2,0.22 0.62,0.071 1.25,0.151 1.87,0.24 0.75,0.101 1.51,0.21 2.25,0.34 0.43,0.061 0.86,0.13 1.29,0.21 0.6,0.101 1.19,0.2 1.78,0.321 3.67,0.679 7.27,1.549 10.79,2.599 0.44,0.12 0.88,0.261 1.32,0.401 0.42,0.12 0.83,0.25 1.24,0.389 0.3,0.091 0.6,0.191 0.9,0.29 0.52,0.17 1.04,0.351 1.55,0.531 0.38,0.129 0.75,0.259 1.12,0.4 0.57,0.2 1.13,0.41 1.69,0.63 0.13,0.04 0.26,0.09 0.38,0.139 0.81,0.311 1.61,0.63 2.41,0.96 1.56,0.641 3.11,1.321 4.64,2.04 0.08,0.04 0.16,0.071 0.24,0.111 0.21,0.099 0.43,0.2 0.64,0.309 0.7,0.33 1.41,0.681 2.1,1.04 0.41,0.201 0.81,0.411 1.21,0.621 0.67,0.35 1.33,0.7 1.98,1.06 0.05,0.029 0.1,0.05 0.14,0.079 0.66,0.361 1.31,0.731 1.95,1.111 0.67,0.389 1.33,0.78 1.99,1.19 0.66,0.399 1.31,0.81 1.96,1.229 5.17,3.331 10,7.081 14.41,11.21 v 0.01 c 5.35,4.981 10.1,10.521 14.14,16.511 -2.389,13.989 -3.58,25.979 -3.78,34.12"
             style="fill:#7e8691;fill-opacity:1;fill-rule:nonzero;stroke:none"
             id="path22" /></g><g
           id="g24"
           transform="translate(416.9502,341.5898)"><path
             d="m 0,0 c -4.32,-1.34 -11.44,-4.13 -17.78,-9.3 -10.26,-8.38 -18.5,-22.99 -9.66,-47.8 0,0 -37.16,-0.129 -50.54,-16.32 -6.15,-7.439 -4.2,-18.84 4.36,-23.33 4.1,-2.16 10.03,-3.24 18.57,-1.52 l -31.98,-27.129 V -24.26 c 26.92,1.1 51.15,11.67 68.81,28.18 v 0.01 c 5.35,4.98 10.1,10.52 14.14,16.51 C -2.98,13.99 -1.62,7.12 0,0"
             style="fill:#7e8691;fill-opacity:1;fill-rule:nonzero;stroke:none"
             id="path26" /></g><g
           id="g28"
           transform="translate(455.9697,248.6904)"><path
             d="m 0,0 h -78.15 c 1.22,0.55 2.48,1.14 3.77,1.779 0,0 2.66,-0.099 6.91,0.061 0.23,0.01 0.47,0.019 0.72,0.029 1.021,0.04 2.13,0.101 3.3,0.181 0.43,0.029 0.87,0.059 1.32,0.09 0.49,0.04 0.98,0.08 1.49,0.12 0.35,0.03 0.71,0.059 1.07,0.099 0.46,0.04 0.92,0.09 1.39,0.141 0.23,0.02 0.47,0.05 0.71,0.069 1.19,0.13 2.43,0.281 3.691,0.46 0.38,0.05 0.75,0.111 1.13,0.16 3.859,0.571 7.96,1.371 12.049,2.46 0.281,0.08 0.56,0.161 0.84,0.241 2.281,0.63 4.54,1.36 6.76,2.21 0.271,0.099 0.55,0.21 0.82,0.32 0.281,0.1 0.56,0.22 0.83,0.33 0.491,0.199 0.97,0.399 1.44,0.609 1.421,0.62 2.79,1.29 4.131,2.021 0.479,0.26 0.949,0.519 1.409,0.79 0.16,0.09 0.31,0.18 0.471,0.279 0.54,0.321 1.069,0.651 1.589,1 0.4,0.25 0.781,0.521 1.161,0.79 0.37,0.261 0.729,0.521 1.089,0.811 0.39,0.279 0.781,0.58 1.15,0.889 0.29,0.231 0.57,0.47 0.841,0.71 0.279,0.241 0.549,0.481 0.809,0.731 0.231,0.21 0.45,0.42 0.67,0.64 0.061,0.059 0.13,0.12 0.2,0.19 0.23,0.229 0.451,0.46 0.67,0.699 0.75,0.78 1.45,1.611 2.111,2.471 C -9.51,13.699 -4.979,6.479 0,0"
             style="fill:#7e8691;fill-opacity:1;fill-rule:nonzero;stroke:none"
             id="path30" /></g><g
           id="g32"
           transform="translate(442.3604,270.0703)"><path
             d="M 0,0 C -0.66,-0.86 -1.36,-1.69 -2.11,-2.471 -2.33,-2.71 -2.561,-2.94 -2.78,-3.17 -2.851,-3.24 -2.92,-3.301 -2.98,-3.36 -3.2,-3.58 -3.42,-3.79 -3.65,-4 -3.92,-4.25 -4.19,-4.49 -4.46,-4.73 -4.74,-4.971 -5.011,-5.21 -5.301,-5.44 -5.67,-5.75 -6.061,-6.051 -6.45,-6.33 c -0.361,-0.29 -0.72,-0.55 -1.09,-0.811 -0.38,-0.269 -0.761,-0.54 -1.16,-0.79 -0.521,-0.349 -1.05,-0.679 -1.59,-1 -0.16,-0.099 -0.311,-0.189 -0.471,-0.279 -0.46,-0.27 -0.929,-0.53 -1.409,-0.79 -1.341,-0.73 -2.71,-1.4 -4.131,-2.021 -0.47,-0.209 -0.949,-0.41 -1.439,-0.609 -0.271,-0.11 -0.55,-0.23 -0.83,-0.33 -0.271,-0.11 -0.55,-0.221 -0.821,-0.32 -2.219,-0.85 -4.479,-1.58 -6.759,-2.21 -0.281,-0.08 -0.56,-0.16 -0.84,-0.24 -4.09,-1.09 -8.191,-1.89 -12.05,-2.46 -0.38,-0.05 -0.75,-0.111 -1.13,-0.161 -1.26,-0.179 -2.5,-0.33 -3.69,-0.46 -0.241,-0.019 -0.48,-0.049 -0.71,-0.069 -0.471,-0.051 -0.93,-0.1 -1.39,-0.141 -0.36,-0.04 -0.72,-0.069 -1.07,-0.099 -0.511,-0.04 -1,-0.08 -1.491,-0.12 -0.449,-0.031 -0.889,-0.061 -1.319,-0.09 -1.17,-0.08 -2.28,-0.141 -3.301,-0.181 -0.239,-0.01 -0.479,-0.019 -0.719,-0.029 -4.25,-0.16 -6.911,-0.061 -6.911,-0.061 -1.29,-0.639 -2.549,-1.229 -3.77,-1.779 -6.119,-2.761 -11.389,-4.46 -15.919,-5.37 -8.54,-1.721 -14.47,-0.641 -18.57,1.52 -8.56,4.49 -10.511,15.89 -4.361,23.33 13.381,16.19 50.54,16.32 50.54,16.32 -8.839,24.809 -0.599,39.42 9.661,47.8 6.339,5.17 13.46,7.96 17.78,9.3 C -20.07,48.14 -11.82,22.14 0,0"
             style="fill:#7e8691;fill-opacity:1;fill-rule:nonzero;stroke:none"
             id="path34" /></g><g
           id="g36"
           transform="translate(329.9199,329.3691)"><path
             d="M 0,0 V -98.109 H -178.3 V 2.02 c 0,4.633 3.757,8.391 8.392,8.391 H -10.411 C -4.661,10.411 0,5.75 0,0"
             style="fill:#ffffff;fill-opacity:1;fill-rule:nonzero;stroke:none"
             id="path38" /></g><path
           d="m 329.92,216.19 h -178.3 v 15.069 h 178.3 z"
           style="fill:#ffffff;fill-opacity:1;fill-rule:nonzero;stroke:none"
           id="path40" /><g
           id="g42"
           transform="translate(398.8701,347.79)"><path
             d="M 0,0 -0.16,-2.31 C -17.82,-18.8 -42.04,-29.37 -68.95,-30.46 v 22.45 h -71.43 c -7.98,6.239 -14.91,13.59 -20.49,21.77 0,0 14.17,28.23 62.86,28.23 C -49.32,41.99 -27.63,38.18 0,0"
             style="fill:#ffffff;fill-opacity:1;fill-rule:nonzero;stroke:none"
             id="path44" /></g><g
           id="g46"
           transform="translate(389.5098,284.4902)"><path
             d="m 0,0 c 0,0 -36.82,4.22 -58.229,-24.71 -0.5,1.17 -0.951,2.42 -1.361,3.75 v 53.8 c 15.24,0.62 29.62,4.28 42.43,10.33 0,0 14.58,-5.391 14.58,-16.36 0,0 -2.27,-15.43 2.58,-26.81"
             style="fill:#ffffff;fill-opacity:1;fill-rule:nonzero;stroke:none"
             id="path48" /></g><g
           id="g50"
           transform="translate(383.27,257.9004)"><path
             d="M 0,0 C -0.34,-4.2 -1.68,-7.431 -1.68,-7.431 -2.64,-8.07 -3.59,-8.66 -4.53,-9.21 c -10.45,-6.131 -19.98,-7.15 -27.57,-5.32 -8.49,2.04 -14.53,7.67 -16.69,13.75 -1.37,3.84 -1.19,7.849 0.9,11.259 v 0.01 c 2.65,4.33 8.38,7.681 17.93,8.46 C -2.73,21.159 0.7,8.55 0,0"
             style="fill:#ffffff;fill-opacity:1;fill-rule:nonzero;stroke:none"
             id="path52" /></g><g
           id="g54"
           transform="translate(258.4902,339.7803)"><path
             d="m 0,0 h -20.73 c 0,0 -0.01,0.05 -0.03,0.14 -0.011,0.04 -0.03,0.099 -0.04,0.17 -0.03,0.129 -0.08,0.31 -0.13,0.54 -0.02,0.11 -0.05,0.24 -0.08,0.37 -0.06,0.259 -0.12,0.57 -0.2,0.92 -0.04,0.17 -0.08,0.36 -0.12,0.549 -0.07,0.38 -0.16,0.79 -0.25,1.25 -0.03,0.181 -0.07,0.371 -0.11,0.561 -0.01,0.06 -0.02,0.13 -0.04,0.189 -0.1,0.5 -0.2,1.031 -0.3,1.601 0,0.029 -0.01,0.06 -0.01,0.08 -0.09,0.449 -0.17,0.93 -0.26,1.42 -0.04,0.239 -0.08,0.489 -0.13,0.75 -0.091,0.5 -0.18,1.029 -0.27,1.58 -0.08,0.56 -0.18,1.13 -0.27,1.73 -0.04,0.29 -0.09,0.589 -0.14,0.889 -0.09,0.66 -0.19,1.341 -0.29,2.04 -0.08,0.591 -0.17,1.191 -0.25,1.811 -0.04,0.34 -0.09,0.68 -0.13,1.03 -0.04,0.35 -0.09,0.699 -0.13,1.05 -0.07,0.569 -0.14,1.16 -0.21,1.75 -0.07,0.6 -0.13,1.2 -0.2,1.819 -0.05,0.461 -0.1,0.931 -0.14,1.401 -0.09,0.839 -0.17,1.69 -0.24,2.56 -0.04,0.44 -0.08,0.89 -0.11,1.34 -0.04,0.46 -0.08,0.91 -0.11,1.37 0.91,-1.631 1.87,-3.24 2.89,-4.81 V 24.09 C -16.19,14.97 -8.73,6.83 0,0"
             style="fill:#009eff;fill-opacity:1;fill-rule:nonzero;stroke:none"
             id="path56" /></g><g
           id="g58"
           transform="translate(565.9902,238.5996)"><path
             d="m 0,0 c -49.851,-35.989 -85.46,-21.859 -110.021,10.091 -4.979,6.479 -9.509,13.699 -13.609,21.38 -11.82,22.139 -20.07,48.139 -25.41,71.519 -1.62,7.12 -2.981,13.99 -4.08,20.441 -2.39,13.989 -3.58,25.979 -3.78,34.12 -1.19,49.55 -22.55,67.749 -46.61,72.889 -24.06,5.15 -33.5,-22.149 -59.81,-8.899 -26.31,13.259 -44.03,-1.71 -44.03,-1.71 -24.8,-23.75 -27.05,-62.94 -25.07,-89.73 v -0.01 c 1.25,-16.931 4.19,-28.91 4.19,-28.91 h -19.55 c 0,0 -12.45,130.099 18.83,182.829 5.2,8.781 16.33,12.051 25.55,7.66 9.71,-4.62 22.71,-12.23 33.95,-23.64 0,0 19.73,4.551 37.95,0.591 0,0 6.65,19.839 18.27,33.77 9.14,10.96 25.31,12.909 36.69,4.299 15.39,-11.66 36.68,-38.919 46.93,-102.37 0,0 0,-0.009 0.009,-0.029 0.411,-1.221 14.321,-40.881 73.46,-39.71 C -5.73,165.57 18.58,108.86 22.74,61.141 89.37,4.061 0,0 0,0"
             style="fill:#009eff;fill-opacity:1;fill-rule:nonzero;stroke:none"
             id="path60" /></g><g
           id="g62"><g
             id="g64" /><g
             id="g76"><g
               clip-path="url(#clipPath68)"
               opacity="0.699997"
               id="g74"><g
                 transform="translate(236.04,512.6099)"
                 id="g72"><path
                   d="m 0,0 c 5.2,8.78 16.33,12.05 25.55,7.66 8.954,-4.26 20.705,-11.063 31.295,-21.043 1.676,-1.58 3.988,-2.29 6.259,-1.908 5.225,0.88 15.465,2.17 26.275,1.138 4.771,-0.456 9.278,2.273 11.172,6.676 3.033,7.051 8.21,17.514 15.169,25.857 9.14,10.96 25.31,12.91 36.69,4.3 15.39,-11.66 36.68,-38.92 46.93,-102.37 0,0 0,-0.01 0.01,-0.03 0.41,-1.22 14.32,-40.88 73.46,-39.71 50.41,0.99 74.72,-55.72 78.88,-103.44 15.707,-13.457 22.743,-23.964 24.326,-32.17 4.084,9.082 -0.327,22.467 -23.326,42.17 -4.16,47.72 -28.47,104.43 -78.88,103.44 -59.14,-1.17 -73.05,38.49 -73.46,39.71 -0.01,0.02 -0.01,0.03 -0.01,0.03 -10.25,63.45 -31.54,90.71 -46.93,102.37 -11.38,8.61 -27.55,6.66 -36.69,-4.3 C 105.1,14.45 98.45,-5.39 98.45,-5.39 80.23,-1.43 60.5,-5.98 60.5,-5.98 49.26,5.43 36.26,13.04 26.55,17.66 17.33,22.05 6.2,18.78 1,10 -10.246,-8.957 -15.839,-37.914 -18.391,-67.23 -15.485,-41.441 -9.963,-16.795 0,0"
                   style="fill:#ffffff;fill-opacity:1;fill-rule:nonzero;stroke:none"
                   id="path70" /></g></g></g></g><g
           id="g78"><g
             id="g80" /><g
             id="g92"><g
               clip-path="url(#clipPath84)"
               opacity="0.699997"
               id="g90"><g
                 transform="translate(514.582,270.0703)"
                 id="g88"><path
                   d="m 0,0 c 0,-7.574 -6.14,-13.715 -13.714,-13.715 -7.574,0 -13.714,6.141 -13.714,13.715 0,7.574 6.14,13.714 13.714,13.714 C -6.14,13.714 0,7.574 0,0"
                   style="fill:#ffffff;fill-opacity:1;fill-rule:nonzero;stroke:none"
                   id="path86" /></g></g></g></g><g
           id="g94"><g
             id="g96" /><g
             id="g108"><g
               clip-path="url(#clipPath100)"
               opacity="0.699997"
               id="g106"><g
                 transform="translate(385.2925,506.5605)"
                 id="g104"><path
                   d="m 0,0 c 0,-6.549 -5.309,-11.858 -11.857,-11.858 -6.549,0 -11.858,5.309 -11.858,11.858 0,6.549 5.309,11.857 11.858,11.857 C -5.309,11.857 0,6.549 0,0"
                   style="fill:#ffffff;fill-opacity:1;fill-rule:nonzero;stroke:none"
                   id="path102" /></g></g></g></g><g
           id="g110"><g
             id="g112" /><g
             id="g124"><g
               clip-path="url(#clipPath116)"
               opacity="0.699997"
               id="g122"><g
                 transform="translate(530.4766,319.125)"
                 id="g120"><path
                   d="m 0,0 c 0,-7.983 -6.472,-14.455 -14.455,-14.455 -7.982,0 -14.454,6.472 -14.454,14.455 0,7.983 6.472,14.454 14.454,14.454 C -6.472,14.454 0,7.983 0,0"
                   style="fill:#ffffff;fill-opacity:1;fill-rule:nonzero;stroke:none"
                   id="path118" /></g></g></g></g><g
           id="g126"><g
             id="g128" /><g
             id="g140"><g
               clip-path="url(#clipPath132)"
               opacity="0.699997"
               id="g138"><g
                 transform="translate(476.3086,317.3301)"
                 id="g136"><path
                   d="m 0,0 c 0,-5.749 -4.66,-10.409 -10.409,-10.409 -5.749,0 -10.409,4.66 -10.409,10.409 0,5.749 4.66,10.409 10.409,10.409 C -4.66,10.409 0,5.749 0,0"
                   style="fill:#ffffff;fill-opacity:1;fill-rule:nonzero;stroke:none"
                   id="path134" /></g></g></g></g><g
           id="g142"><g
             id="g144" /><g
             id="g156"><g
               clip-path="url(#clipPath148)"
               opacity="0.699997"
               id="g154"><g
                 transform="translate(533.9609,360.9502)"
                 id="g152"><path
                   d="m 0,0 c 0,-4.954 -4.016,-8.97 -8.97,-8.97 -4.954,0 -8.969,4.016 -8.969,8.97 0,4.953 4.015,8.969 8.969,8.969 C -4.016,8.969 0,4.953 0,0"
                   style="fill:#ffffff;fill-opacity:1;fill-rule:nonzero;stroke:none"
                   id="path150" /></g></g></g></g><g
           id="g158"><g
             id="g160" /><g
             id="g172"><g
               clip-path="url(#clipPath164)"
               opacity="0.699997"
               id="g170"><g
                 transform="translate(268.1616,492.665)"
                 id="g168"><path
                   d="m 0,0 c 0,-4.954 -4.016,-8.97 -8.969,-8.97 -4.954,0 -8.97,4.016 -8.97,8.97 0,4.954 4.016,8.97 8.97,8.97 C -4.016,8.97 0,4.954 0,0"
                   style="fill:#ffffff;fill-opacity:1;fill-rule:nonzero;stroke:none"
                   id="path166" /></g></g></g></g><g
           id="g174"><g
             id="g176" /><g
             id="g188"><g
               clip-path="url(#clipPath180)"
               opacity="0.699997"
               id="g186"><g
                 transform="translate(417.7314,471.3237)"
                 id="g184"><path
                   d="m 0,0 c 0,-4.954 -4.016,-8.97 -8.97,-8.97 -4.954,0 -8.969,4.016 -8.969,8.97 0,4.954 4.015,8.969 8.969,8.969 C -4.016,8.969 0,4.954 0,0"
                   style="fill:#ffffff;fill-opacity:1;fill-rule:nonzero;stroke:none"
                   id="path182" /></g></g></g></g><g
           id="g190"><g
             id="g192" /><g
             id="g204"><g
               clip-path="url(#clipPath196)"
               opacity="0.699997"
               id="g202"><g
                 transform="translate(566.8018,289.1104)"
                 id="g200"><path
                   d="m 0,0 c 0,-5.749 -4.66,-10.409 -10.408,-10.409 -5.749,0 -10.409,4.66 -10.409,10.409 0,5.748 4.66,10.408 10.409,10.408 C -4.66,10.408 0,5.748 0,0"
                   style="fill:#ffffff;fill-opacity:1;fill-rule:nonzero;stroke:none"
                   id="path198" /></g></g></g></g><g
           id="g206"><g
             id="g208" /><g
             id="g220"><g
               clip-path="url(#clipPath212)"
               opacity="0.699997"
               id="g218"><g
                 transform="translate(487.5908,360.9502)"
                 id="g216"><path
                   d="m 0,0 c 0,-5.99 -4.855,-10.846 -10.846,-10.846 -5.99,0 -10.845,4.856 -10.845,10.846 0,5.989 4.855,10.846 10.845,10.846 C -4.855,10.846 0,5.989 0,0"
                   style="fill:#ffffff;fill-opacity:1;fill-rule:nonzero;stroke:none"
                   id="path214" /></g></g></g></g><g
           id="g222"><g
             id="g224" /><g
             id="g236"><g
               clip-path="url(#clipPath228)"
               opacity="0.699997"
               id="g234"><g
                 transform="translate(436.376,368.6904)"
                 id="g232"><path
                   d="m 0,0 c 0,-4.056 -3.288,-7.344 -7.344,-7.344 -4.055,0 -7.343,3.288 -7.343,7.344 0,4.056 3.288,7.343 7.343,7.343 C -3.288,7.343 0,4.056 0,0"
                   style="fill:#ffffff;fill-opacity:1;fill-rule:nonzero;stroke:none"
                   id="path230" /></g></g></g></g><g
           id="g238"><g
             id="g240" /><g
             id="g252"><g
               clip-path="url(#clipPath244)"
               opacity="0.300003"
               id="g250"><g
                 transform="translate(218.21,353.7803)"
                 id="g248"><path
                   d="m 0,0 v 0 -14 h 19.55 c 0,0 -1.317,5.373 -2.563,14 z"
                   style="fill:#102770;fill-opacity:1;fill-rule:nonzero;stroke:none"
                   id="path246" /></g></g></g></g><g
           id="g254"><g
             id="g256" /><g
             id="g268"><g
               clip-path="url(#clipPath260)"
               opacity="0.300003"
               id="g266"><g
                 transform="translate(408.3545,408.1514)"
                 id="g264"><path
                   d="m 0,0 c -1.189,49.55 -21.814,69.749 -45.875,74.889 -24.06,5.15 -33.5,-22.15 -59.81,-8.9 -26.31,13.26 -44.029,-1.71 -44.029,-1.71 -22.553,-21.598 -26.456,-55.96 -25.49,-82.158 0.908,23.538 6.78,50.24 25.49,68.158 0,0 17.719,14.97 44.029,1.71 26.31,-13.25 35.75,14.05 59.81,8.9 24.061,-5.14 45.421,-23.34 46.61,-72.89 0.201,-8.141 1.391,-20.131 3.781,-34.12 1.099,-6.45 2.46,-13.32 4.08,-20.441 5.34,-23.379 13.59,-49.379 25.41,-71.519 4.099,-7.681 8.63,-14.9 13.609,-21.38 24.561,-31.95 60.17,-46.08 110.021,-10.091 0,0 57.102,2.597 45.982,32.793 -7.93,-17.062 -45.982,-18.793 -45.982,-18.793 -49.851,-35.989 -85.46,-21.859 -110.021,10.091 -4.979,6.48 -9.51,13.699 -13.609,21.38 -11.82,22.14 -20.07,48.14 -25.41,71.519 -1.62,7.121 -2.981,13.991 -4.08,20.441 C 2.126,-18.132 0.2,-8.14 0,0"
                   style="fill:#102770;fill-opacity:1;fill-rule:nonzero;stroke:none"
                   id="path262" /></g></g></g></g><g
           id="g270"><g
             id="g272" /><g
             id="g284"><g
               clip-path="url(#clipPath276)"
               opacity="0.300003"
               id="g282"><g
                 transform="translate(258.4902,339.7803)"
                 id="g280"><path
                   d="m 0,0 h -20.73 c 0,0 -2.94,11.979 -4.19,28.91 C -18.73,17.819 -10.24,8.01 0,0"
                   style="fill:#102770;fill-opacity:1;fill-rule:nonzero;stroke:none"
                   id="path278" /></g></g></g></g><g
           id="g286"
           transform="translate(335.4155,259.1582)"><path
             d="m 0,0 c 0,0 -1.586,5.754 -5.496,2.589 v -45.557 l 31.98,27.13 C 26.484,-15.838 0.405,-21.776 0,0"
             style="fill:#ffffff;fill-opacity:1;fill-rule:nonzero;stroke:none"
             id="path288" /></g><g
           id="g290"><g
             id="g292" /><g
             id="g304"><g
               clip-path="url(#clipPath296)"
               opacity="0.300003"
               id="g302"><g
                 transform="translate(335.4155,259.1582)"
                 id="g300"><path
                   d="m 0,0 c 0,0 -1.586,5.754 -5.496,2.589 v -45.557 l 31.98,27.13 C 26.484,-15.838 0.405,-21.776 0,0"
                   style="fill:#102770;fill-opacity:1;fill-rule:nonzero;stroke:none"
                   id="path298" /></g></g></g></g><g
           id="g306"><g
             id="g308" /><g
             id="g320"><g
               clip-path="url(#clipPath312)"
               opacity="0.300003"
               id="g318"><g
                 transform="translate(455.9697,248.6904)"
                 id="g316"><path
                   d="m 0,0 h -78.15 c -6.12,-2.761 -11.39,-4.46 -15.92,-5.37 0,0 -0.01,0 -0.02,-0.011 -0.37,-0.079 -4.98,-0.97 -10.71,0.061 -8.49,2.04 -14.53,7.67 -16.69,13.75 l 0.9,11.259 c 4.55,-36.299 46.28,-10.649 46.28,-10.649 0.54,0.06 1.081,0.109 1.61,0.17 21.011,2.239 33.78,5.25 41.89,9.159 -12.259,17.79 -23.969,40.7 -25.99,65.231 -0.02,0.299 -0.05,0.599 -0.06,0.9 C -79.33,66.649 -67.12,36.329 -67.12,36.329 -103.59,33.6 -112.45,21.96 -112.45,21.96 c 2.27,10.979 27.29,23.069 27.29,23.069 -4.25,6.561 -1.15,19.75 -1.15,19.75 -11.61,-6.889 -39.56,-8.8 -39.56,-8.8 l -0.18,-0.099 v 12.76 c 1.69,0.07 3.361,0.17 5.02,0.32 0.65,0.05 1.301,0.109 1.94,0.189 0.67,0.061 1.34,0.13 2,0.22 0.62,0.07 1.25,0.151 1.87,0.24 0.75,0.101 1.51,0.21 2.25,0.34 0.43,0.061 0.86,0.13 1.29,0.21 0.6,0.101 1.19,0.2 1.78,0.32 3.671,0.68 7.27,1.55 10.79,2.6 0.44,0.12 0.881,0.261 1.32,0.4 0.42,0.121 0.83,0.25 1.24,0.39 0.3,0.091 0.6,0.191 0.9,0.29 0.52,0.17 1.04,0.351 1.55,0.53 0.38,0.13 0.75,0.26 1.121,0.401 0.569,0.2 1.129,0.41 1.689,0.63 0.13,0.04 0.26,0.09 0.38,0.139 0.81,0.311 1.61,0.63 2.41,0.96 1.561,0.641 3.11,1.321 4.64,2.04 0.08,0.04 0.16,0.071 0.24,0.111 0.21,0.099 0.431,0.2 0.641,0.309 0.699,0.33 1.409,0.681 2.099,1.04 0.41,0.201 0.81,0.41 1.21,0.62 0.67,0.351 1.33,0.701 1.981,1.061 0.049,0.029 0.099,0.05 0.139,0.079 0.66,0.36 1.31,0.731 1.95,1.11 0.67,0.38 1.33,0.781 1.99,1.191 0.66,0.39 1.31,0.8 1.96,1.229 5.171,3.311 10,7.071 14.41,11.191 v 0.01 0.009 0.01 c -0.82,16.521 -5.15,31.171 -10.8,43.551 -5.42,11.9 -12.03,21.7 -17.89,29.07 -7.049,8.88 -18.88,12.61 -29.65,9.1 -21.01,-6.861 -40.32,-3.12 -52.03,0.75 -10.11,3.34 -21.32,0.47 -28.51,-7.381 -11.48,-12.52 -16.52,-44.239 -15.7,-67.109 -2.74,3.21 -5.25,6.589 -7.53,10.12 -0.1,0.229 -0.15,0.32 -0.16,0.269 -1.02,1.571 -1.98,3.17 -2.89,4.801 v 0.01 c -1.98,26.79 0.27,65.98 25.07,89.73 0,0 17.72,14.969 44.03,1.71 26.31,-13.25 35.75,14.05 59.81,8.9 0.53,-0.11 1.06,-0.23 1.59,-0.36 0.99,-0.24 1.97,-0.49 2.94,-0.77 0.3,-0.091 0.6,-0.18 0.9,-0.281 0.88,-0.27 1.76,-0.56 2.63,-0.87 0.53,-0.19 1.05,-0.38 1.57,-0.59 0.52,-0.199 1.04,-0.419 1.55,-0.639 0.52,-0.22 1.03,-0.45 1.54,-0.691 0.89,-0.409 1.77,-0.849 2.63,-1.309 0.22,-0.12 0.44,-0.24 0.67,-0.361 0.46,-0.259 0.91,-0.52 1.36,-0.79 0.44,-0.259 0.881,-0.529 1.31,-0.81 0.44,-0.279 0.88,-0.569 1.321,-0.869 0.559,-0.381 1.109,-0.781 1.659,-1.191 0.35,-0.259 0.7,-0.529 1.05,-0.809 0.99,-0.781 1.96,-1.6 2.9,-2.48 0.22,-0.2 0.44,-0.41 0.66,-0.62 1.67,-1.6 3.271,-3.37 4.79,-5.301 0.26,-0.319 0.51,-0.65 0.76,-0.98 1.54,-2.069 2.99,-4.31 4.33,-6.75 0.15,-0.259 0.28,-0.509 0.42,-0.77 0.38,-0.71 0.74,-1.429 1.1,-2.17 0.22,-0.449 0.43,-0.899 0.64,-1.359 0.691,-1.5 1.34,-3.07 1.95,-4.71 0.27,-0.721 0.54,-1.46 0.79,-2.21 0.12,-0.35 0.241,-0.701 0.35,-1.06 0.011,-0.031 0.02,-0.05 0.03,-0.08 0.01,-0.03 0.021,-0.05 0.03,-0.081 0.17,-0.529 0.331,-1.06 0.5,-1.599 0.01,-0.04 0.02,-0.08 0.041,-0.131 0.169,-0.58 0.339,-1.159 0.5,-1.759 0.339,-1.21 0.66,-2.471 0.959,-3.75 0.15,-0.64 0.291,-1.29 0.43,-1.95 0.14,-0.63 0.271,-1.28 0.401,-1.931 0.489,-2.519 0.91,-5.17 1.25,-7.94 0.059,-0.469 0.109,-0.94 0.169,-1.42 0.15,-1.31 0.281,-2.64 0.39,-4.009 0.05,-0.531 0.09,-1.06 0.12,-1.6 0.04,-0.451 0.071,-0.9 0.09,-1.36 0.05,-0.631 0.08,-1.281 0.12,-1.93 0.08,-1.5 0.13,-3.04 0.17,-4.6 0.2,-8.141 1.391,-20.131 3.78,-34.12 0.71,-4.181 1.54,-8.54 2.47,-13.03 0.5,-2.441 1.04,-4.911 1.61,-7.411 4.64,-20.309 11.47,-42.599 20.94,-62.609 1.431,-3.03 2.92,-6 4.471,-8.91 C -9.51,13.699 -4.979,6.479 0,0"
                   style="fill:#102770;fill-opacity:1;fill-rule:nonzero;stroke:none"
                   id="path314" /></g></g></g></g><g
           id="g322"><g
             id="g324" /><g
             id="g336"><g
               clip-path="url(#clipPath328)"
               opacity="0.300003"
               id="g334"><g
                 transform="translate(319.6343,339.7803)"
                 id="g332"><path
                   d="m 0,0 v -82.361 c 0,-8.591 -6.964,-15.556 -15.556,-15.556 h -152.458 v -10.604 h 178.3 V -8.019 C 10.286,-3.59 6.696,0 2.268,0 Z"
                   style="fill:#102770;fill-opacity:1;fill-rule:nonzero;stroke:none"
                   id="path330" /></g></g></g></g><g
           id="g338"><g
             id="g340" /><g
             id="g352"><g
               clip-path="url(#clipPath344)"
               opacity="0.300003"
               id="g350"><g
                 transform="translate(323.063,231.2598)"
                 id="g348"><path
                   d="m 0,0 v 0 c 0,-4.811 -3.9,-8.71 -8.71,-8.71 h -162.733 v -6.359 H 6.857 L 6.857,0 Z"
                   style="fill:#102770;fill-opacity:1;fill-rule:nonzero;stroke:none"
                   id="path346" /></g></g></g></g><g
           id="g354"
           transform="translate(439.626,441.5957)"><path
             d="m 0,0 c 1.188,-5.559 2.012,-11.194 2.658,-16.856 0.652,-5.662 1.001,-11.363 1.227,-17.058 0.432,-11.395 0.176,-22.781 -0.764,-34.111 -0.019,-0.238 -0.227,-0.413 -0.465,-0.394 -0.208,0.018 -0.37,0.182 -0.391,0.383 -1.244,11.289 -2.336,22.524 -3.771,33.678 -0.703,5.579 -1.536,11.13 -2.294,16.691 -0.761,5.563 -1.568,11.122 -2.128,16.739 -0.166,1.651 1.038,3.124 2.69,3.289 C -1.7,2.516 -0.315,1.478 0,0"
             style="fill:#102770;fill-opacity:1;fill-rule:nonzero;stroke:none"
             id="path356" /></g><g
           id="g358"
           transform="translate(218.2046,336.2803)"><path
             d="m 0,0 c -1.783,0 -3.306,1.355 -3.479,3.167 -0.514,5.358 -12.198,131.845 19.302,184.952 6.056,10.209 19.261,14.176 30.063,9.034 9.059,-4.313 22.087,-11.755 33.585,-22.999 5.176,0.989 19.869,3.28 34.545,0.787 2.337,6.147 8.489,20.785 17.851,32.01 10.395,12.463 28.617,14.592 41.486,4.849 16.222,-12.279 37.743,-40.263 48.151,-103.841 0.313,-1.908 -0.981,-3.707 -2.888,-4.02 -1.914,-0.311 -3.707,0.982 -4.02,2.889 -10.034,61.296 -30.264,87.882 -45.468,99.391 -9.885,7.483 -23.891,5.834 -31.885,-3.752 -11.045,-13.242 -17.573,-32.448 -17.637,-32.641 -0.568,-1.691 -2.316,-2.688 -4.061,-2.307 -17.258,3.748 -36.235,-0.54 -36.425,-0.583 -1.182,-0.274 -2.427,0.088 -3.28,0.955 -11.103,11.276 -24.054,18.7 -32.964,22.942 -7.568,3.604 -16.804,0.842 -21.032,-6.285 C -8.493,133.403 3.365,5.123 3.488,3.833 3.672,1.909 2.262,0.2 0.338,0.016 0.225,0.005 0.112,0 0,0"
             style="fill:#102770;fill-opacity:1;fill-rule:nonzero;stroke:none"
             id="path360" /></g><g
           id="g362"
           transform="translate(591.8037,299.0469)"><path
             d="m 0,0 c 0.487,-2.088 0.626,-4.213 0.659,-6.337 0.039,-2.126 -0.151,-4.258 -0.377,-6.379 -0.232,-2.122 -0.568,-4.236 -0.996,-6.334 -0.45,-2.096 -0.973,-4.178 -1.707,-6.218 -0.083,-0.23 -0.337,-0.35 -0.568,-0.267 -0.153,0.055 -0.257,0.186 -0.285,0.335 -0.407,2.116 -0.702,4.199 -1.012,6.269 l -0.841,6.173 c -0.259,2.047 -0.562,4.083 -0.715,6.123 -0.157,2.04 -0.285,4.076 -0.137,6.145 v 0.016 c 0.12,1.671 1.571,2.929 3.242,2.81 C -1.38,2.239 -0.295,1.259 0,0"
             style="fill:#102770;fill-opacity:1;fill-rule:nonzero;stroke:none"
             id="path364" /></g><g
           id="g366"
           transform="translate(588.6523,297.1084)"><path
             d="m 0,0 c -1.788,0 -3.313,1.363 -3.481,3.179 -4.621,50.121 -29.706,100.283 -75.255,99.389 -32.185,-0.636 -51.326,10.722 -61.707,20.363 -11.393,10.579 -15.011,21.34 -15.16,21.794 -0.601,1.837 0.4,3.814 2.237,4.416 1.831,0.597 3.807,-0.395 4.412,-2.227 0.04,-0.117 3.358,-9.768 13.559,-19.117 13.711,-12.567 32.735,-18.71 56.52,-18.23 C -28.747,110.552 -1.43,57.169 3.489,3.821 3.667,1.896 2.25,0.192 0.325,0.015 0.216,0.005 0.107,0 0,0"
             style="fill:#102770;fill-opacity:1;fill-rule:nonzero;stroke:none"
             id="path368" /></g><g
           id="g370"
           transform="translate(511.1172,213.8711)"><path
             d="m 0,0 c -9.654,0 -18.899,2.182 -27.702,6.551 -30.823,15.301 -49.621,54.754 -59.962,85.156 -11.602,34.107 -17.394,70.815 -17.864,90.488 -0.961,40.14 -15.712,63.542 -43.841,69.555 -9.527,2.037 -16.551,-1.733 -23.988,-5.723 -9.619,-5.162 -20.521,-11.013 -36.664,-2.881 -23.192,11.684 -38.763,-0.109 -40.136,-1.21 -38.397,-36.942 -19.989,-114.412 -19.799,-115.191 0.459,-1.877 -0.69,-3.772 -2.566,-4.231 -1.881,-0.463 -3.772,0.687 -4.233,2.564 -0.204,0.833 -5.001,20.678 -4.841,45.641 0.216,33.437 9.446,59.844 26.695,76.366 0.052,0.051 0.107,0.1 0.163,0.147 0.795,0.671 19.815,16.296 47.866,2.166 12.893,-6.496 20.915,-2.19 30.205,2.797 7.838,4.206 16.725,8.972 28.761,6.401 31.714,-6.78 48.327,-32.428 49.376,-76.233 0.825,-34.457 20.63,-143.079 73.94,-169.542 22.406,-11.123 48.45,-6.159 77.41,14.75 0.552,0.399 1.209,0.627 1.889,0.658 10.537,0.488 38.884,4.656 43.443,17.922 3.043,8.853 -4.844,21.667 -22.812,37.057 -1.468,1.258 -1.639,3.467 -0.381,4.935 1.258,1.468 3.466,1.64 4.936,0.381 C 100.809,70.609 108.945,56.003 104.77,43.869 98.269,24.976 62.844,21.744 56.085,21.298 36.195,7.112 17.431,0 0,0"
             style="fill:#102770;fill-opacity:1;fill-rule:nonzero;stroke:none"
             id="path372" /></g><path
           d="m 154.125,218.693 h 173.293 v 10.063 H 154.125 Z m 175.792,-5 H 151.625 c -1.381,0 -2.5,1.119 -2.5,2.5 v 15.064 c 0,1.381 1.119,2.5 2.5,2.5 h 178.292 c 1.381,0 2.5,-1.119 2.5,-2.5 v -15.064 c 0,-1.381 -1.119,-2.5 -2.5,-2.5"
           style="fill:#102770;fill-opacity:1;fill-rule:nonzero;stroke:none"
           id="path374" /><g
           id="g376"
           transform="translate(155.1245,219.6934)"><path
             d="m 0,0 h 171.293 v 111.344 c 0,2.892 -2.354,5.246 -5.247,5.246 H 4.892 C 2.194,116.59 0,114.396 0,111.698 Z M 174.793,-7 H -3.5 C -5.433,-7 -7,-5.433 -7,-3.5 v 115.198 c 0,6.557 5.334,11.892 11.892,11.892 h 161.154 c 6.753,0 12.247,-5.493 12.247,-12.246 V -3.5 c 0,-1.933 -1.567,-3.5 -3.5,-3.5"
             style="fill:#102770;fill-opacity:1;fill-rule:nonzero;stroke:none"
             id="path378" /></g><g
           id="g380"
           transform="translate(256.334,337.0234)"><path
             d="m 0,0 c -10.73,8.395 -19.417,18.478 -25.821,29.97 l 6.115,3.407 C -13.759,22.704 -5.678,13.33 4.313,5.514 Z"
             style="fill:#102770;fill-opacity:1;fill-rule:nonzero;stroke:none"
             id="path382" /></g><g
           id="g384"
           transform="translate(329.915,313.8271)"><path
             d="m 0,0 c -1.868,0 -3.418,1.475 -3.495,3.357 -0.078,1.932 1.424,3.561 3.355,3.64 32.898,1.34 62.877,17.475 80.194,43.16 1.082,1.604 3.257,2.027 4.858,0.947 1.604,-1.082 2.026,-3.256 0.946,-4.859 C 67.301,18.72 35.259,1.433 0.145,0.003 0.096,0.001 0.048,0 0,0"
             style="fill:#102770;fill-opacity:1;fill-rule:nonzero;stroke:none"
             id="path386" /></g><g
           id="g388"
           transform="translate(329.9194,212.6934)"><path
             d="m 0,0 c -0.993,0 -1.979,0.42 -2.671,1.236 -1.25,1.474 -1.069,3.683 0.405,4.933 l 31.982,27.123 c 1.474,1.253 3.683,1.069 4.933,-0.405 1.25,-1.474 1.068,-3.683 -0.406,-4.933 L 2.262,0.831 C 1.604,0.272 0.8,0 0,0"
             style="fill:#102770;fill-opacity:1;fill-rule:nonzero;stroke:none"
             id="path390" /></g><g
           id="g392"
           transform="translate(455.9746,245.1924)"><path
             d="m 0,0 h -78.152 c -1.933,0 -3.5,1.567 -3.5,3.5 0,1.933 1.567,3.5 3.5,3.5 H 0 C 1.933,7 3.5,5.433 3.5,3.5 3.5,1.567 1.933,0 0,0"
             style="fill:#102770;fill-opacity:1;fill-rule:nonzero;stroke:none"
             id="path394" /></g><g
           id="g396"
           transform="translate(353.9907,238.959)"><path
             d="m 0,0 c -4.655,-0.001 -8.757,0.926 -12.291,2.781 -4.896,2.57 -8.338,7.192 -9.441,12.681 -1.143,5.685 0.321,11.512 4.017,15.983 14.254,17.247 51.632,17.584 53.216,17.59 h 0.014 c 1.926,0 3.491,-1.557 3.499,-3.485 0.008,-1.933 -1.553,-3.506 -3.485,-3.515 -0.355,-0.002 -35.683,-0.329 -47.848,-15.049 -2.347,-2.839 -3.276,-6.537 -2.551,-10.144 0.686,-3.412 2.812,-6.278 5.832,-7.863 7.474,-3.923 19.608,-1.96 35.093,5.673 0.52,0.257 1.092,0.384 1.678,0.359 0.429,-0.017 42.92,-1.356 57.857,18.224 1.172,1.536 3.369,1.834 4.906,0.66 1.537,-1.172 1.832,-3.369 0.659,-4.906 C 75.134,7.989 35.083,7.858 28.368,7.992 17.388,2.669 7.898,0 0,0"
             style="fill:#102770;fill-opacity:1;fill-rule:nonzero;stroke:none"
             id="path398" /></g><g
           id="g400"
           transform="translate(417.0977,341.1133)"><path
             d="m 0,0 c -5.333,-2.378 -10.349,-5.307 -14.637,-8.939 -4.287,-3.618 -7.786,-7.963 -9.967,-12.814 -2.191,-4.854 -3.059,-10.138 -2.919,-15.484 0.078,-5.359 1.21,-10.754 2.539,-16.185 l 0.024,-0.098 c 0.46,-1.878 -0.691,-3.775 -2.57,-4.235 -1.742,-0.426 -3.498,0.532 -4.112,2.171 -1.08,2.876 -2.014,5.833 -2.577,8.913 -0.64,3.055 -0.923,6.224 -0.897,9.405 -0.024,6.366 1.697,12.877 4.915,18.428 3.216,5.58 7.927,10.038 13.121,13.277 5.233,3.219 10.945,5.374 16.783,6.515 C -0.023,1.008 0.24,0.83 0.294,0.558 0.34,0.323 0.21,0.093 0,0"
             style="fill:#102770;fill-opacity:1;fill-rule:nonzero;stroke:none"
             id="path402" /></g><g
           id="g404"
           transform="translate(254.4116,273.4893)"><path
             d="m 0,0 c -1.686,1.225 -2.848,3.001 -3.458,4.993 -0.806,2.627 -3.207,5.779 -10.092,5.779 -6.886,0 -9.287,-3.152 -10.092,-5.779 -0.611,-1.992 -1.773,-3.768 -3.459,-4.993 -3.508,-2.549 -3.23,-6.379 -3.23,-6.379 -0.005,-13.027 16.781,-13.021 16.781,-13.021 0,0 16.785,-0.006 16.78,13.021 0,0 0.278,3.83 -3.23,6.379"
             style="fill:#102770;fill-opacity:1;fill-rule:nonzero;stroke:none"
             id="path406" /></g><g
           id="g408"
           transform="translate(224.7563,285.9932)"><path
             d="m 0,0 c 2.192,-3.798 1.794,-8.133 -0.889,-9.683 -2.684,-1.548 -6.637,0.274 -8.83,4.072 -2.192,3.798 -1.794,8.132 0.889,9.681 C -6.146,5.62 -2.193,3.798 0,0"
             style="fill:#102770;fill-opacity:1;fill-rule:nonzero;stroke:none"
             id="path410" /></g><g
           id="g412"
           transform="translate(238.6079,296.2217)"><path
             d="m 0,0 c 1.159,-4.759 -0.628,-9.28 -3.991,-10.099 -3.363,-0.819 -7.028,2.375 -8.187,7.134 -1.158,4.758 0.628,9.279 3.991,10.099 C -4.824,7.952 -1.159,4.759 0,0"
             style="fill:#102770;fill-opacity:1;fill-rule:nonzero;stroke:none"
             id="path414" /></g><g
           id="g416"
           transform="translate(244.1338,296.2217)"><path
             d="m 0,0 c -1.159,-4.759 0.628,-9.28 3.991,-10.099 3.363,-0.819 7.028,2.375 8.187,7.134 C 13.336,1.793 11.55,6.314 8.187,7.134 4.824,7.952 1.159,4.759 0,0"
             style="fill:#102770;fill-opacity:1;fill-rule:nonzero;stroke:none"
             id="path418" /></g><g
           id="g420"
           transform="translate(256.7856,285.9932)"><path
             d="m 0,0 c -2.193,-3.798 -1.794,-8.133 0.889,-9.683 2.684,-1.548 6.637,0.274 8.83,4.072 2.192,3.798 1.794,8.132 -0.89,9.681 C 6.146,5.62 2.192,3.798 0,0"
             style="fill:#102770;fill-opacity:1;fill-rule:nonzero;stroke:none"
             id="path422" /></g><g
           id="g424"
           transform="translate(233.855,400.4214)"><path
             d="m 0,0 10.485,1.295 c 1.105,0.136 1.677,-1.28 0.786,-1.948 L -0.685,-9.63 Z"
             style="fill:#102770;fill-opacity:1;fill-rule:nonzero;stroke:none"
             id="path426" /></g><g
           id="g428"
           transform="translate(233.0273,381.5137)"><path
             d="M 0,0 12.164,5.217 C 13.196,5.66 14.139,4.436 13.447,3.55 L 0.543,-12.817 Z"
             style="fill:#102770;fill-opacity:1;fill-rule:nonzero;stroke:none"
             id="path430" /></g><g
           id="g432"
           transform="translate(408.3545,408.1514)"><path
             d="M 0,0 -3.648,0.386 C -4.973,0.525 -5.656,-0.926 -4.59,-1.611 l 4.997,-3.211 z"
             style="fill:#102770;fill-opacity:1;fill-rule:nonzero;stroke:none"
             id="path434" /></g><g
           id="g436"
           transform="translate(409.3086,391.1123)"><path
             d="M 0,0 -5.622,2.063 C -6.858,2.517 -7.988,1.262 -7.159,0.354 l 7.841,-8.586 z"
             style="fill:#102770;fill-opacity:1;fill-rule:nonzero;stroke:none"
             id="path438" /></g><g
           id="g440"
           transform="translate(356.2578,417.7432)"><path
             d="m 0,0 c -3.287,1.027 -6.451,2.033 -9.439,2.557 -2.996,0.552 -5.81,0.673 -8.51,0.209 -1.352,-0.23 -2.686,-0.612 -3.994,-1.187 -1.316,-0.55 -2.63,-1.242 -3.913,-2.099 -2.594,-1.675 -5.102,-3.86 -7.762,-6.223 l -0.014,-0.012 c -0.582,-0.517 -1.473,-0.464 -1.99,0.118 -0.331,0.372 -0.425,0.881 -0.3,1.327 1.042,3.604 2.949,6.997 5.695,9.901 0.657,0.754 1.451,1.389 2.219,2.062 0.391,0.328 0.831,0.605 1.249,0.909 0.418,0.303 0.849,0.596 1.315,0.84 1.798,1.069 3.819,1.857 5.914,2.297 4.204,0.93 8.612,0.359 12.293,-1.243 C -5.385,8.66 -3.688,7.617 -2.167,6.397 -0.646,5.151 0.68,3.795 1.774,2.052 2.189,1.391 1.99,0.519 1.329,0.104 0.967,-0.124 0.541,-0.167 0.162,-0.051 Z"
             style="fill:#102770;fill-opacity:1;fill-rule:nonzero;stroke:none"
             id="path442" /></g><g
           id="g444"
           transform="translate(254.0293,412.8237)"><path
             d="m 0,0 c 0.79,1.743 1.843,3.153 3.09,4.493 1.253,1.311 2.696,2.481 4.327,3.436 3.227,1.914 7.374,2.931 11.448,2.292 4.088,-0.575 7.712,-2.729 10.272,-5.387 2.613,-2.659 4.399,-5.784 5.434,-9.106 0.22,-0.707 -0.174,-1.458 -0.881,-1.678 -0.446,-0.139 -0.911,-0.032 -1.248,0.243 l -0.024,0.02 C 29.874,-3.575 27.51,-1.576 25.077,-0.096 22.654,1.401 20.256,2.368 17.849,2.606 15.445,2.862 12.955,2.502 10.29,1.68 7.63,0.888 4.838,-0.409 1.917,-1.722 L 1.778,-1.784 C 1.1,-2.089 0.303,-1.786 -0.001,-1.108 -0.166,-0.743 -0.152,-0.339 0,0"
             style="fill:#102770;fill-opacity:1;fill-rule:nonzero;stroke:none"
             id="path446" /></g><g
           id="g448"
           transform="translate(292.2236,368.3779)"><path
             d="m 0,0 c 3.367,-5.352 8.993,-12.322 15.422,-12.258 5.165,0.053 10.597,4.734 15.872,13.616 C 26.407,0.633 20.994,1.378 15.166,3.581 9.283,1.287 4.321,0.122 0,0 m 18.279,-16.76 c -0.931,-0.202 -1.867,-0.306 -2.81,-0.316 -10.44,-0.104 -18.233,11.65 -21.948,18.666 -0.434,0.817 -0.36,1.811 0.189,2.556 0.55,0.746 1.477,1.111 2.387,0.938 4.471,-0.846 10.476,0.22 18.16,3.319 0.575,0.232 1.22,0.234 1.797,0.002 5.873,-2.353 11.164,-3.048 15.725,-2.064 1.19,0.257 2.33,0.632 3.392,1.115 C 36.1,7.881 37.198,7.671 37.907,6.934 38.615,6.196 38.781,5.092 38.32,4.18 32.071,-8.21 25.34,-15.236 18.279,-16.76"
             style="fill:#102770;fill-opacity:1;fill-rule:nonzero;stroke:none"
             id="path450" /></g><g
           id="g452"
           transform="translate(294.0356,367.4648)"><path
             d="m 0,0 c 2.983,-4.403 8.02,-10.327 13.523,-10.327 0.025,0 0.051,0 0.077,10e-4 4.414,0.045 9.208,3.965 13.93,11.368 C 23.149,0.751 18.392,1.55 13.361,3.405 8.319,1.466 3.925,0.345 0,0 m 13.521,-12.363 c -6.76,0 -12.534,6.916 -16.195,12.734 l -0.95,1.51 1.783,0.05 C 2.38,2.05 7.229,3.199 12.984,5.442 l 0.364,0.143 0.366,-0.139 C 19.368,3.31 24.621,2.583 29.333,3.278 L 31.451,3.593 30.357,1.752 C 24.83,-7.558 19.198,-12.306 13.62,-12.363 Z M -6.16,5.021 C -6.597,5.021 -7.019,4.813 -7.283,4.455 -7.598,4.028 -7.641,3.449 -7.392,2.98 -3.8,-3.802 3.683,-15.145 13.52,-15.146 c 0.043,0 0.084,0 0.127,0.001 0.873,0.009 1.749,0.108 2.604,0.293 h 10e-4 c 6.743,1.456 13.252,8.32 19.347,20.404 0.266,0.525 0.17,1.164 -0.239,1.59 C 34.951,7.566 34.318,7.687 33.782,7.443 32.654,6.929 31.443,6.531 30.182,6.259 25.419,5.232 19.928,5.943 13.863,8.373 13.528,8.509 13.16,8.508 12.825,8.372 4.97,5.202 -1.153,4.097 -5.905,4.997 -5.99,5.013 -6.075,5.021 -6.16,5.021 m 19.681,-22.203 c -10.906,0 -18.905,12.02 -22.712,19.208 -0.613,1.156 -0.508,2.584 0.27,3.638 0.777,1.055 2.111,1.58 3.396,1.333 4.29,-0.811 10.209,0.287 17.589,3.264 0.826,0.333 1.733,0.332 2.557,0.003 5.68,-2.277 10.773,-2.956 15.131,-2.015 1.119,0.241 2.19,0.594 3.185,1.047 1.32,0.603 2.884,0.305 3.892,-0.744 C 37.835,7.504 38.071,5.93 37.417,4.634 31.032,-8.024 24.056,-15.25 16.683,-16.842 c -0.99,-0.215 -2.004,-0.329 -3.015,-0.34 z"
             style="fill:#102770;fill-opacity:1;fill-rule:nonzero;stroke:none"
             id="path454" /></g><g
           id="g456"
           transform="translate(307.5015,374.0576)"><path
             d="m 0,0 c -3.252,-1.312 -6.262,-2.281 -8.994,-2.871 -3.659,-0.79 -6.834,-0.916 -9.527,-0.407 5.506,-10.394 20.865,-32.479 38.469,2.418 C 18.901,-1.337 17.676,-1.768 16.262,-2.073 12.336,-2.92 6.963,-2.791 0,0"
             style="fill:#102770;fill-opacity:1;fill-rule:nonzero;stroke:none"
             id="path458" /></g><g
           id="g460"
           transform="translate(322.0537,374.3506)"><path
             d="M 0,0 3.984,-0.493 1.564,-3.697 -0.854,-6.9 -2.419,-3.204 -3.984,0.493 Z"
             style="fill:#ffffff;fill-opacity:1;fill-rule:nonzero;stroke:none"
             id="path462" /></g><g
           id="g464"
           transform="translate(294.1509,372.5166)"><path
             d="M 0,0 3.527,1.048 2.671,-2.53 1.815,-6.109 l -2.671,2.53 -2.671,2.531 z"
             style="fill:#ffffff;fill-opacity:1;fill-rule:nonzero;stroke:none"
             id="path466" /></g></g></g><g
       id="g468"><g
         id="g470"
         clip-path="url(#clipPath474)"><g
           id="g476"
           transform="translate(321.8008,354.4736)"><path
             d="m 0,0 c 0.574,-7.811 -4.884,-14.577 -12.19,-15.113 -7.307,-0.537 -13.695,5.359 -14.268,13.17 -0.574,7.809 4.883,14.576 12.19,15.113 C -6.962,13.707 -0.574,7.811 0,0"
             style="fill:#f75c4c;fill-opacity:1;fill-rule:nonzero;stroke:none"
             id="path478" /></g><g
           id="g480"><g
             id="g482" /><g
             id="g494"><g
               clip-path="url(#clipPath486)"
               opacity="0.399994"
               id="g492"><g
                 transform="translate(307.5327,367.6436)"
                 id="g490"><path
                   d="m 0,0 c -3.121,-0.229 -5.899,-1.602 -8.02,-3.7 1.227,0.515 2.546,0.845 3.935,0.946 7.306,0.537 13.694,-5.359 14.268,-13.169 0.328,-4.474 -1.328,-8.598 -4.171,-11.413 5.227,2.2 8.721,7.84 8.256,14.166 C 13.694,-5.359 7.306,0.537 0,0"
                   style="fill:#102770;fill-opacity:1;fill-rule:nonzero;stroke:none"
                   id="path488" /></g></g></g></g></g></g><g
       id="g496"><g
         id="g498"
         clip-path="url(#clipPath502)"><g
           id="g504"
           transform="translate(331.8789,379.7686)"><path
             d="M 0,0 C -0.96,0.802 -2.396,0.673 -3.212,-0.281 -3.448,-0.557 -8.98,-6.784 -22.26,-1.634 l -0.966,7.887 c -0.153,1.254 -1.294,2.145 -2.548,1.992 -1.254,-0.161 -2.145,-1.294 -1.992,-2.549 l 0.916,-7.48 c -3.852,-1.505 -6.956,-2.318 -9.467,-2.69 -2.571,-0.38 -4.52,-0.297 -5.975,0.013 -0.646,0.138 -1.199,0.318 -1.666,0.522 -1.929,0.836 -2.455,2.078 -2.503,2.199 -0.389,1.175 -1.652,1.83 -2.837,1.468 -1.208,-0.369 -1.89,-1.646 -1.521,-2.854 0.096,-0.316 1.046,-3.137 4.719,-4.864 0.972,-0.458 2.047,-0.781 3.202,-0.999 2.693,-0.509 5.867,-0.383 9.526,0.407 2.732,0.59 5.742,1.559 8.995,2.871 6.963,-2.791 12.336,-2.92 16.262,-2.073 1.414,0.305 2.639,0.736 3.685,1.213 3.086,1.405 4.609,3.211 4.747,3.382 C 1.108,-2.219 0.961,-0.803 0,0"
             style="fill:#102770;fill-opacity:1;fill-rule:nonzero;stroke:none"
             id="path506" /></g><g
           id="g508"
           transform="translate(283.2402,378.5762)"><path
             d="m 0,0 c -0.12,0 -0.242,-0.018 -0.361,-0.054 -0.326,-0.099 -0.592,-0.318 -0.752,-0.617 -0.159,-0.299 -0.192,-0.641 -0.094,-0.966 0.034,-0.109 0.845,-2.672 4.179,-4.24 0.859,-0.404 1.826,-0.705 2.958,-0.92 2.57,-0.484 5.638,-0.349 9.122,0.402 2.626,0.568 5.596,1.516 8.828,2.821 l 0.38,0.153 0.38,-0.152 c 5.815,-2.331 11.087,-3.011 15.669,-2.024 1.219,0.264 2.39,0.649 3.478,1.145 2.933,1.336 4.319,3.024 4.377,3.096 0.441,0.541 0.362,1.316 -0.178,1.767 v 0 C 47.457,0.853 46.654,0.78 46.2,0.249 c -0.248,-0.29 -6.241,-7.05 -20.189,-1.64 l -0.569,0.221 -1.04,8.491 C 24.317,8.016 23.686,8.517 22.988,8.427 22.297,8.338 21.799,7.703 21.883,7.012 L 22.896,-1.253 22.16,-1.54 C 18.567,-2.943 15.307,-3.868 12.471,-4.288 10.033,-4.65 7.901,-4.642 6.135,-4.265 5.461,-4.121 4.835,-3.925 4.274,-3.681 2.03,-2.707 1.345,-1.212 1.231,-0.922 1.04,-0.349 0.534,0 0,0 m 9.17,-9.117 c -1.282,0 -2.49,0.106 -3.619,0.319 -1.303,0.247 -2.43,0.601 -3.447,1.079 -4.072,1.915 -5.149,5.129 -5.259,5.49 -0.257,0.843 -0.17,1.737 0.245,2.516 0.416,0.779 1.11,1.35 1.954,1.607 1.702,0.522 3.541,-0.431 4.101,-2.123 v 0.001 c 0.002,0 0.404,-0.918 1.94,-1.585 0.437,-0.19 0.933,-0.344 1.474,-0.459 1.528,-0.326 3.417,-0.328 5.613,-0.002 2.493,0.37 5.352,1.159 8.51,2.348 l -0.82,6.691 c -0.22,1.798 1.069,3.451 2.873,3.682 1.826,0.219 3.468,-1.069 3.688,-2.878 l 0.892,-7.276 c 12.203,-4.506 17.13,1.038 17.337,1.279 1.176,1.376 3.258,1.557 4.64,0.402 1.382,-1.155 1.586,-3.225 0.453,-4.615 -0.173,-0.213 -1.806,-2.158 -5.114,-3.665 -1.22,-0.555 -2.53,-0.987 -3.892,-1.281 C 35.856,-8.64 30.315,-7.978 24.264,-5.614 21.069,-6.885 18.117,-7.816 15.482,-8.385 13.223,-8.873 11.112,-9.117 9.17,-9.117"
             style="fill:#102770;fill-opacity:1;fill-rule:nonzero;stroke:none"
             id="path510" /></g><g
           id="g512"
           transform="translate(295.4062,397.4746)"><path
             d="m 0,0 21.101,1.111 c 1.642,0.086 3.025,-1.174 3.127,-2.816 0.225,-3.651 -1.435,-9.58 -13.953,-11.113 0,0 -12.168,-1.165 -13.086,9.636 C -2.952,-1.525 -1.66,-0.088 0,0"
             style="fill:#102770;fill-opacity:1;fill-rule:nonzero;stroke:none"
             id="path514" /></g><g
           id="g516"><g
             id="g518" /><g
             id="g534"><g
               clip-path="url(#clipPath522)"
               opacity="0.300003"
               id="g532"><g
                 transform="translate(299.7065,390.3018)"
                 id="g526"><path
                   d="m 0,0 c -1.767,0 -3.065,0.73 -3.31,1.859 -0.315,1.46 1.277,3.002 3.624,3.51 0.483,0.104 0.968,0.157 1.438,0.157 1.768,0 3.066,-0.73 3.31,-1.86 C 5.224,2.917 4.899,2.133 4.146,1.457 3.47,0.85 2.509,0.389 1.438,0.157 0.955,0.054 0.471,0 0,0"
                   style="fill:#ffffff;fill-opacity:1;fill-rule:nonzero;stroke:none"
                   id="path524" /></g><g
                 transform="translate(301.4604,396.3369)"
                 id="g530"><path
                   d="m 0,0 v 0 c -0.508,0 -1.028,-0.058 -1.547,-0.169 -2.67,-0.576 -4.396,-2.345 -4.014,-4.114 0.296,-1.373 1.79,-2.261 3.806,-2.261 0.507,0 1.028,0.057 1.547,0.169 2.67,0.576 4.395,2.345 4.014,4.113 C 3.509,-0.888 2.016,0 0,0 m 0,-1.019 c 1.458,0 2.616,-0.555 2.811,-1.458 0.251,-1.163 -1.197,-2.463 -3.234,-2.903 -0.458,-0.099 -0.908,-0.145 -1.332,-0.145 -1.459,0 -2.616,0.555 -2.811,1.457 -0.251,1.164 1.197,2.464 3.233,2.904 0.459,0.099 0.909,0.145 1.333,0.145"
                   style="fill:#1a1a5a;fill-opacity:1;fill-rule:nonzero;stroke:none"
                   id="path528" /></g></g></g></g></g></g></g></svg>
